<svg width="97" height="96" viewBox="0 0 97 96" fill="none" xmlns="http://www.w3.org/2000/svg">
<path d="M12.4336 90.8955V94.4327H15.3277C15.6492 94.4327 15.8636 94.4327 16.078 94.2183C16.2924 94.1111 16.3996 93.8968 16.3996 93.6824V93.2536C16.3996 93.0393 16.2924 92.9321 16.1852 92.7177C16.078 92.6105 15.8636 92.5033 15.7564 92.5033C15.9708 92.5033 16.078 92.3961 16.1852 92.2889C16.2924 92.1817 16.2924 92.0746 16.2924 91.8602V91.4314C16.2924 91.2171 16.2924 91.0027 16.078 90.8955C15.9708 90.7883 15.7564 90.6811 15.5421 90.6811H12.4336V90.8955ZM15.1133 92.8249C15.2205 92.8249 15.3277 92.8249 15.4349 92.9321C15.4349 93.0393 15.5421 93.0393 15.5421 93.1464V93.468C15.5421 93.5752 15.542 93.6824 15.4349 93.6824C15.3277 93.7896 15.2205 93.7896 15.1133 93.7896H13.2911V92.9321H15.1133V92.8249ZM15.2205 91.4314C15.3277 91.4314 15.3277 91.4314 15.4349 91.4314C15.542 91.4314 15.5421 91.5386 15.5421 91.6458V91.9674C15.5421 92.0746 15.542 92.0746 15.4349 92.1817C15.3277 92.1817 15.3277 92.2889 15.2205 92.2889H13.2911V91.4314H15.2205ZM17.4714 90.8955V94.4327H18.3289V93.0393H20.5799C20.7943 93.0393 21.0086 93.0393 21.223 92.8249C21.3302 92.7177 21.4374 92.5033 21.4374 92.2889V91.5386C21.4374 91.3242 21.3302 91.1099 21.223 91.0027C21.0086 90.8955 20.9015 90.7883 20.6871 90.8955H17.4714ZM20.0439 91.4314C20.1511 91.4314 20.2583 91.4314 20.3655 91.5386C20.4727 91.6458 20.4727 91.6458 20.4727 91.753V92.1817C20.4727 92.2889 20.4727 92.3961 20.3655 92.3961C20.2583 92.3961 20.1511 92.5033 20.0439 92.5033H18.2218V91.5386L20.0439 91.4314ZM21.9733 90.8955V94.4327H25.6177V93.7896H22.8308V92.9321H24.4387V92.2889H22.8308V91.5386H25.6177V90.8955H21.9733ZM30.6556 90.8955L29.0477 93.0393L27.3327 90.8955H26.6896V94.4327H27.3327V92.2889V91.8602C27.3327 91.9674 27.4399 92.0746 27.5471 92.1817L28.8334 94.0039H29.0477L30.334 92.1817C30.4412 92.0746 30.4412 91.9674 30.5484 91.8602C30.5484 91.9674 30.5484 92.0746 30.5484 92.2889V94.4327H31.2987V90.8955H30.6556ZM36.1222 94.4327V90.8955H33.1209C32.9065 90.8955 32.6921 90.8955 32.585 91.0027C32.4778 91.1099 32.3706 91.3242 32.3706 91.5386V92.3961C32.3706 92.6105 32.4778 92.8249 32.585 92.9321C32.7993 93.0393 33.0137 93.1464 33.2281 93.0393H33.5496L32.049 94.4327H33.2281L34.5143 93.0393H35.2647V94.4327H36.1222ZM35.2647 91.4314V92.3961H33.3353C33.2281 92.3961 33.2281 92.3961 33.1209 92.2889C33.0137 92.1817 33.0137 92.1818 33.0137 92.0746V91.6458C33.0137 91.5386 33.0137 91.4314 33.1209 91.4314C33.2281 91.4314 33.2281 91.3242 33.3353 91.3242L35.2647 91.4314ZM38.4803 90.8955V94.4327H39.3378V91.5386H41.8031V94.4327H42.6606V90.8955H38.4803ZM43.7325 93.5752C43.7325 93.7896 43.7325 94.004 43.9469 94.2183C44.1613 94.3255 44.3756 94.4327 44.59 94.4327H47.1625C47.3769 94.4327 47.6985 94.4327 47.8057 94.2183C47.9129 94.004 48.02 93.7896 48.02 93.5752V91.753C48.02 91.5386 48.02 91.3242 47.8057 91.1099C47.5913 91.0027 47.3769 90.8955 47.1625 90.8955H44.59C44.3756 90.8955 44.0541 90.8955 43.9469 91.1099C43.8397 91.3242 43.7325 91.5386 43.7325 91.753V93.5752ZM44.59 91.5386H47.2697V93.7896H44.59V91.5386ZM49.4135 90.8955V94.4327H52.3076C52.6291 94.4327 52.8435 94.4327 53.1651 94.2183C53.2723 94.1111 53.3794 93.8968 53.3794 93.6824V92.9321C53.3794 92.7177 53.2723 92.5033 53.1651 92.3961C52.9507 92.2889 52.7363 92.1817 52.4148 92.1817H50.271V91.4314H53.1651V90.7883H49.4135V90.8955ZM52.0932 92.8249C52.2004 92.8249 52.3076 92.8249 52.3076 92.9321C52.4148 93.0393 52.4148 93.0393 52.4148 93.1464V93.468C52.4148 93.5752 52.4148 93.5752 52.3076 93.6824C52.2004 93.7896 52.0932 93.7896 51.986 93.7896H50.0566V92.8249H52.0932ZM54.3441 90.8955V94.4327H57.9885V93.7896H55.0945V92.9321H56.7023V92.2889H55.0945V91.5386H57.8813V90.8955H54.3441ZM62.0617 90.8955H61.2042V92.5033L59.5964 90.8955H58.6317L60.3467 92.6105L58.2029 94.5399H59.382L61.097 92.8249V94.5399H61.9545V92.8249L63.6695 94.5399H64.8486L62.7048 92.6105L64.4198 90.8955H63.5623L61.9545 92.5033L62.0617 90.8955ZM66.4564 90.8955L64.9558 93.7896H64.527V95.0758H65.2773V94.4327H68.2786V95.0758H69.0289V93.7896H68.6002L67.0995 90.8955H66.4564ZM65.7061 93.7896L66.778 91.5386L67.8498 93.7896H65.7061ZM71.0655 90.8955L69.0289 94.4327H69.8864L70.3152 93.6824H72.5661L72.9949 94.4327H73.9596L71.923 90.8955H71.0655ZM70.6367 93.0393L71.3871 91.6458L72.1374 93.0393H70.6367ZM75.5674 91.5386H77.1752V90.8955H73.1021V91.5386H74.7099V94.4327H75.5674V91.5386ZM78.5686 90.8955H77.7111V94.4327H80.6052C80.9268 94.4327 81.1412 94.4327 81.4627 94.2183C81.5699 94.1111 81.6771 93.8968 81.6771 93.6824V92.8249C81.6771 92.6105 81.6771 92.5033 81.4627 92.3961C81.2483 92.1817 80.9268 92.0746 80.6052 92.1817H78.5686V90.8955ZM80.498 92.7177C80.6052 92.7177 80.7124 92.7177 80.7124 92.8249C80.8196 92.9321 80.8196 92.9321 80.8196 93.0393V93.468C80.8196 93.5752 80.8196 93.5752 80.7124 93.6824C80.6052 93.7896 80.498 93.7896 80.3908 93.7896H78.5686V92.7177H80.498ZM82.5346 92.9321H83.0705L83.2849 90.7883H82.2131L82.5346 92.9321ZM82.5346 93.468C82.3202 93.468 82.3202 93.5752 82.3202 93.6824V94.1111C82.3202 94.3255 82.4274 94.3255 82.5346 94.3255H83.1777C83.3921 94.3255 83.3921 94.2183 83.3921 94.1111V93.5752C83.3921 93.3608 83.2849 93.3608 83.1777 93.3608L82.5346 93.468ZM77.4968 22.0807L71.7086 17.686L59.7035 17.3645L55.5232 5.68097L47.9129 0L40.1953 5.78816L36.1222 17.3645L24.2243 17.686L18.4361 22.0807L40.3025 21.4376L47.9129 0L55.5232 21.4376L77.4968 22.0807Z" fill="white"/>
<path d="M31.4063 50.3783L6.21712 31.0845L0.321777 35.4792L29.2626 57.5599L31.4063 50.3783Z" fill="#D2232A"/>
<path d="M33.55 43.0897L12.1124 26.6899L6.32422 31.0847L31.4062 50.2713L33.55 43.0897Z" fill="#00417B"/>
<path d="M18.0076 22.4023L12.1123 26.6899L33.5499 43.0896L35.6937 35.908L33.014 33.8715L18.0076 22.4023Z" fill="white"/>
<path d="M64.5273 50.3783L89.6094 31.0845L95.5047 35.4792L66.6711 57.5599L64.5273 50.3783Z" fill="#D2232A"/>
<path d="M62.3838 43.0897L83.7142 26.6899L89.6096 31.0847L64.5276 50.2713L62.3838 43.0897Z" fill="#00417B"/>
<path d="M77.8186 22.4023L83.6067 26.7971L62.3835 43.0896L60.2397 35.908L62.9194 33.8715C62.8122 33.8715 77.8186 22.4023 77.8186 22.4023ZM29.2623 57.56H66.5638L47.9131 44.6975C47.9131 44.8047 29.2623 57.56 29.2623 57.56ZM27.2258 62.7051V67.7429H28.4048V63.6698H31.9421V62.7051H27.2258ZM32.7996 62.7051V67.7429H33.9786V65.8135H37.0871C37.4086 65.8135 37.7302 65.7063 37.9446 65.5991C38.159 65.3848 38.2661 65.1704 38.159 64.8488V63.7769C38.159 63.4554 38.0518 63.241 37.8374 63.0266C37.623 62.9194 37.3015 62.8123 37.0871 62.8123H32.7996V62.7051ZM36.5511 63.5626C36.6583 63.5626 36.8727 63.5626 36.9799 63.6698C37.0871 63.7769 37.0871 63.8841 37.0871 63.9913V64.5273C37.0871 64.6344 37.0871 64.7416 36.9799 64.8488C36.8727 64.956 36.7655 64.956 36.5511 64.956H33.9786V63.5626H36.5511ZM40.4099 62.7051H39.2308V64.5273C39.2308 64.8488 39.338 65.1704 39.5524 65.492C39.7668 65.7063 40.0883 65.7063 40.4099 65.7063H43.8399V66.7782H40.4099V66.1351L39.2308 66.3495V66.4566C39.2308 66.7782 39.338 67.0998 39.5524 67.4213C39.7668 67.6357 40.0883 67.7429 40.4099 67.6357H43.9471C44.2687 67.6357 44.5902 67.5285 44.8046 67.4213C45.019 67.207 45.1262 66.8854 45.1262 66.5638V62.5979H43.9471V64.7416H40.5171L40.4099 62.7051ZM47.0556 62.7051V67.7429H48.2346V63.6698H51.7718V67.7429H52.9509V62.7051H47.0556ZM54.9875 62.7051V67.7429H56.0594V63.6698H59.5966V67.7429H60.7757V62.7051H54.9875ZM64.6344 62.7051L61.7403 67.7429H62.9194L63.4554 66.671H66.671L67.3141 67.7429H68.6004L65.7063 62.7051H64.6344ZM63.9913 65.7063L65.1704 63.6698L66.2422 65.7063H63.9913ZM13.1841 76.8539C13.1841 73.6382 12.0051 72.352 9.0038 72.352H0V84.4643H3.21564V81.463H9.0038C12.4338 81.463 13.1841 80.2839 13.1841 76.8539ZM9.8613 76.8539C9.8613 78.4617 9.64693 78.5689 8.36067 78.5689H3.21564V75.1389H8.36067C9.64693 75.2461 9.8613 75.5676 9.8613 76.8539ZM28.8336 80.1767V76.7467C28.8336 72.9951 26.2611 72.352 23.5814 72.352H19.6154C16.8285 72.352 14.3632 73.1023 14.3632 76.7467V80.1767C14.3632 83.9283 16.8285 84.6786 19.6154 84.6786H23.6886C26.3683 84.6786 28.8336 83.9283 28.8336 80.1767ZM25.5108 79.8552C25.5108 81.6774 24.7605 81.8917 23.5814 81.8917H19.6154C18.4364 81.8917 17.686 81.6774 17.686 79.8552V77.1755C17.686 75.3533 18.4364 75.2461 19.6154 75.2461H23.6886C24.7604 75.2461 25.618 75.4604 25.618 77.1755V79.8552H25.5108ZM45.8765 86.8224V81.6774H44.6974V72.352H32.2636V76.5323C32.2636 80.1767 31.4061 80.927 30.5486 81.6774H29.6911V86.8224H32.9067V84.5714H42.6609V86.8224H45.8765ZM41.4818 81.6774H34.0858C34.7289 81.0342 35.4793 80.0695 35.4793 76.5323V75.2461H41.4818V81.6774ZM61.4188 84.5714V72.352H58.2031L50.2712 80.4983L50.3784 72.352H47.1628V84.4643H50.3784L58.3103 76.318L58.2031 84.5714H61.4188ZM77.8186 84.5714V72.352H74.6029V76.9611H66.671V72.352H63.4554V84.4643H66.671V79.748H74.6029V84.4643H77.8186V84.5714ZM96.0405 84.5714L89.7164 72.4592H85.1073L78.7832 84.5714H82.4276L83.4995 82.5349H91.2171L92.289 84.5714H96.0405ZM90.038 79.9623H84.893L87.4655 74.9245L90.038 79.9623Z" fill="white"/>
</svg>
