<svg width="98" height="33" viewBox="0 0 98 33" fill="none" xmlns="http://www.w3.org/2000/svg">
<path d="M64.8611 4.03672H68.1245L68.7364 5.12454H70.0962L67.1047 0.0253906H65.9489L63.0254 5.12454H64.2492L64.8611 4.03672ZM66.4928 0.977231L67.5806 3.08488H65.337L66.4928 0.977231Z" fill="white"/>
<path d="M67.9887 9.88403H64.6572V22.258H67.9887V17.4308H76.0793V22.258H79.3428V9.88403H76.0793V14.5752H67.9887V9.88403Z" fill="white"/>
<path d="M13.4617 14.4393C13.4617 11.1758 12.3059 9.88403 9.24645 9.88403H0V22.258H3.33144V19.0625H9.17846C12.6459 19.1305 13.4617 17.9067 13.4617 14.4393ZM10.0623 14.4393C10.0623 16.003 9.85835 16.207 8.56656 16.207H3.33144V12.7396H8.56656C9.85835 12.7396 10.0623 13.1475 10.0623 14.4393Z" fill="white"/>
<path d="M16.0458 30.4838C16.2498 30.4838 16.3857 30.4158 16.5217 30.2798C16.6577 30.1438 16.6577 30.0078 16.6577 29.8719V29.4639C16.6577 29.26 16.5897 29.056 16.4537 28.92C16.3178 28.7841 16.1138 28.7161 15.9098 28.7161H12.7144V32.3195H15.6379C15.9098 32.3195 16.1818 32.2515 16.4537 32.1835C16.6577 32.0475 16.7257 31.8435 16.7257 31.6396V31.1637C16.7257 30.9597 16.6577 30.8237 16.5217 30.6877C16.3857 30.5518 16.2498 30.4838 16.0458 30.4838ZM13.5982 29.328H15.5699C15.6379 29.328 15.7059 29.328 15.7738 29.396C15.8418 29.4639 15.9098 29.5319 15.8418 29.5999V29.9399C15.8418 30.0078 15.8418 30.0758 15.7738 30.1438C15.7059 30.2118 15.6379 30.2118 15.5699 30.2118H13.5982V29.328ZM15.9098 31.3676C15.9098 31.4356 15.9098 31.5716 15.8418 31.6396C15.7738 31.7076 15.6379 31.7076 15.5019 31.7076H13.5982V30.7557H15.5019C15.6379 30.7557 15.7738 30.7557 15.8418 30.8237C15.9098 30.8917 15.9098 30.9597 15.9098 31.0957V31.3676Z" fill="white"/>
<path d="M28.9631 0.909243H32.5664V0.0253906H27.7393V5.12454H28.9631V0.909243Z" fill="white"/>
<path d="M41.2693 3.01689H44.8047V4.1727H41.2693V3.49281L40.1135 3.69677V3.83275C40.1135 4.1727 40.1815 4.51264 40.3855 4.78459C40.6574 4.98856 40.9974 5.05655 41.2693 5.05655H44.8047C45.0767 5.05655 45.4166 4.98856 45.6886 4.78459C45.8925 4.58063 45.9605 4.24068 45.9605 3.96873V0.0253906H44.7367V2.26901H41.2013V0.0253906H40.0455V1.86108C39.9775 2.20103 40.1135 2.54097 40.3175 2.81292C40.6574 2.9489 40.9974 3.08488 41.2693 3.01689Z" fill="white"/>
<path d="M34.6745 3.15297H37.8699C38.2099 3.15297 38.4818 3.08498 38.7538 2.88102C38.9578 2.67705 39.0257 2.4051 39.0257 2.13314V0.977336C39.0257 0.705382 38.9578 0.365439 38.7538 0.229462C38.4818 0.0254958 38.2099 -0.0424929 37.8699 0.0254957H33.4507V5.12464H34.6745V3.15297ZM34.6745 0.841359H37.326C37.462 0.841359 37.598 0.841359 37.734 0.909348C37.802 0.977336 37.8699 1.11331 37.8699 1.24929V1.7932C37.8699 1.92918 37.802 2.06515 37.734 2.13314C37.598 2.20113 37.462 2.20113 37.326 2.20113H34.6745V0.841359Z" fill="white"/>
<path d="M57.2463 0.909243H60.7817V5.12454H62.0055V0.0253906H56.0225V5.12454H57.2463V0.909243Z" fill="white"/>
<path d="M19.9888 22.3936H24.0681C26.9236 22.3936 29.4392 21.6457 29.4392 17.8383V14.3709C29.4392 10.5635 26.7876 9.81567 24.0681 9.81567H19.9888C17.1333 9.81567 14.6177 10.4956 14.6177 14.3709V17.8383C14.6177 21.6457 17.1333 22.3936 19.9888 22.3936ZM18.0171 14.7109C18.0171 12.8752 18.765 12.6712 19.9888 12.6712H24.0681C25.1559 12.6712 26.0398 12.8752 26.0398 14.7109V17.4984C26.0398 19.3341 25.2239 19.538 24.0681 19.538H19.9888C18.765 19.538 18.0171 19.3341 18.0171 17.4984V14.7109Z" fill="white"/>
<path d="M49.2242 0.909243H52.8276V5.12454H53.9834V0.0253906H48.0684V5.12454H49.2242V0.909243Z" fill="white"/>
<path d="M46.8445 24.5696V19.4024H45.6887V9.88403H32.9068V14.0993C32.9068 17.8387 32.023 18.5866 31.1391 19.4024H30.3232V24.5696H33.6547V22.258H43.581V24.5696H46.8445ZM42.3572 19.4024H34.8105C35.4224 18.7905 36.1703 17.7707 36.1703 14.0993V12.7396H42.2892V19.4024H42.3572Z" fill="white"/>
<path d="M74.5835 29.396H76.2832V32.3874H77.0991V29.396H78.7988V28.7161H74.5835V29.396Z" fill="white"/>
<path d="M82.1304 30.0765H80.0908V28.7847H79.2749V32.3881H82.1984C82.4704 32.3881 82.8103 32.3201 83.0143 32.1841C83.1503 32.0481 83.2182 31.8442 83.2182 31.7082V30.8243C83.2182 30.6204 83.1503 30.4844 83.0823 30.3484C82.8103 30.0765 82.4704 30.0085 82.1304 30.0765ZM82.4024 31.3682C82.4024 31.4362 82.4024 31.5042 82.3344 31.5722C82.2664 31.6402 82.1304 31.6402 81.9944 31.6402H80.0908V30.6204H82.0624C82.1304 30.6204 82.2664 30.6204 82.3344 30.6883C82.4024 30.7563 82.4024 30.8243 82.4024 30.9603V31.3682Z" fill="white"/>
<path d="M20.9405 28.7161H17.813V32.3195H18.6289V30.8917H20.8725C21.0764 30.8917 21.2804 30.8237 21.4844 30.7557C21.6204 30.6197 21.6883 30.4158 21.6883 30.2118V29.396C21.6883 29.192 21.6204 28.988 21.4844 28.852C21.3484 28.7841 21.1444 28.7161 20.9405 28.7161ZM20.8725 30.0078C20.8725 30.0758 20.8725 30.2118 20.8045 30.2118C20.7365 30.2798 20.6005 30.2798 20.5325 30.2798H18.6968V29.328H20.5325C20.6005 29.328 20.7365 29.328 20.8045 29.396C20.8725 29.4639 20.8725 29.5319 20.8725 29.5999V30.0078Z" fill="white"/>
<path d="M72.4756 28.7167L70.5719 32.0481V31.6402H70.164L68.6682 28.6487H67.8523L66.3566 31.6402H65.9487V31.9801L64.181 30.4164L65.9487 28.7167H64.9288L63.2971 30.3484V28.7167H62.4812V30.3484L60.8495 28.7167H59.8297L61.5974 30.4164L59.4897 32.3201H60.6456L62.4133 30.6204V32.3201H63.2291V30.6204L64.9968 32.3201H65.8127V33H66.6285V32.3201H69.756V33H70.5719V32.3201H71.2518L71.6597 31.5042H73.9713L74.3792 32.3201H75.3311L73.2234 28.7167H72.4756ZM67.0365 31.7082L68.1243 29.4645L69.2801 31.7082H67.0365ZM71.9996 30.8923L72.8155 29.3966L73.6314 30.8923H71.9996Z" fill="white"/>
<path d="M84.8497 31.3679H84.2378C83.9658 31.3679 83.9658 31.4359 83.9658 31.6399V32.1158C83.9658 32.3878 84.0338 32.3877 84.1018 32.3877H84.7817C84.9856 32.3877 84.9856 32.3198 84.9856 32.1158V31.5719C85.0536 31.3679 84.9857 31.3679 84.8497 31.3679Z" fill="white"/>
<path d="M91.5123 9.88403H86.8211L80.4302 22.258H84.1016L85.1894 20.1503H93.076L94.1639 22.258H97.8352L91.5123 9.88403ZM86.5491 17.5667L89.2007 12.4676L91.7843 17.5667H86.5491Z" fill="white"/>
<path d="M84.7817 30.8917L85.0536 28.7161H83.9658L84.2378 30.8917H84.7817Z" fill="white"/>
<path d="M62.685 22.258V9.88403H59.3536L51.263 18.2466H51.195L51.263 9.88403H47.9995V22.258H51.263L59.4216 13.9633L59.3536 22.258H62.685Z" fill="white"/>
<path d="M29.5749 30.8923L27.8752 28.7167H27.1953V32.3201H27.8752V30.0764V29.6685C27.9432 29.8045 28.0112 29.9405 28.0792 30.0085L29.4389 31.8441H29.5749L30.9347 30.0085C31.0027 29.8725 31.0707 29.7365 31.1387 29.6005C31.1387 29.7365 31.1387 29.8725 31.1387 30.0085V32.2521H31.8865V28.6487H31.2066L29.5749 30.8923Z" fill="white"/>
<path d="M33.1784 28.852C33.0425 28.988 32.9745 29.192 32.9745 29.396V30.2798C32.9745 30.4838 33.0425 30.6877 33.1784 30.8237C33.3824 30.9597 33.5864 31.0277 33.7903 30.9597H34.2663L32.7705 32.3195H33.9943L35.2861 30.9597H36.1019V32.3195H36.8498V28.7161H33.7223C33.5184 28.7161 33.3144 28.7841 33.1784 28.852ZM33.7223 29.6679C33.7223 29.5999 33.7223 29.4639 33.7903 29.4639C33.8583 29.3959 33.9263 29.396 34.0623 29.396H35.966V30.4158H33.9943C33.9263 30.4158 33.8583 30.4158 33.7903 30.3478C33.7223 30.2798 33.7223 30.2118 33.7223 30.1438V29.6679Z" fill="white"/>
<path d="M56.2265 30.7557H57.9262V30.1438H56.2265V29.328H59.082V28.7161H55.4106V32.3874H59.15V31.7076H56.2265V30.7557Z" fill="white"/>
<path d="M23.3199 30.7557H24.9516V30.1438H23.3199V29.328H26.1754V28.7161H22.436V32.3874H26.1754V31.7076H23.3199V30.7557Z" fill="white"/>
<path d="M53.3709 30.1438H51.1953V29.396H54.1188V28.7161H50.3794V32.3195H53.3029C53.5749 32.3195 53.9148 32.2515 54.1188 32.1155C54.2547 31.9795 54.3227 31.7756 54.3227 31.6396V30.8917C54.3227 30.6877 54.2547 30.4838 54.1188 30.3478C53.9148 30.2118 53.6428 30.1438 53.3709 30.1438ZM53.5069 31.3676C53.5069 31.4356 53.5069 31.5036 53.4389 31.5716C53.3709 31.6396 53.2349 31.6396 53.0989 31.6396H51.1953V30.6877H53.1669C53.2349 30.6877 53.3709 30.6877 53.4389 30.7557C53.5069 30.8237 53.5069 30.8917 53.5069 31.0277V31.3676Z" fill="white"/>
<path d="M39.2295 32.3874H40.1133V29.396H42.6289V32.3874H43.4448V28.7161H39.2295V32.3874Z" fill="white"/>
<path d="M48.2722 28.7161H45.6207C45.3487 28.7161 45.1448 28.7161 44.9408 28.92C44.8048 29.124 44.7368 29.328 44.7368 29.5999V31.5036C44.7368 31.7756 44.8048 31.9795 44.9408 32.1835C45.1448 32.3195 45.4167 32.3874 45.6207 32.3874H48.2722C48.5442 32.3874 48.7481 32.3874 48.9521 32.1835C49.0881 31.9795 49.1561 31.7756 49.1561 31.5036V29.5999C49.1561 29.328 49.0881 29.124 48.9521 28.92C48.7481 28.7841 48.4762 28.7161 48.2722 28.7161ZM48.2722 31.7076H45.4847V29.396H48.2722V31.7076Z" fill="white"/>
</svg>
