<svg width="20" height="14" viewBox="0 0 20 14" fill="none" xmlns="http://www.w3.org/2000/svg">
<path d="M17.5 8.60039C17.4 8.60039 17.2 8.60039 17.1 8.60039L13.8 0.400391H11.5V1.40039H13.2L15 6.00039L12.2 10.6004H8.9C8.6 8.40039 6.8 6.60039 4.5 6.60039C2 6.60039 0 8.60039 0 11.1004H1C1 9.20039 2.6 7.60039 4.5 7.60039C6.3 7.60039 7.7 8.90039 7.9 10.6004H6.9C6.7 9.50039 5.7 8.60039 4.5 8.60039C3.1 8.60039 2 9.70039 2 11.1004C2 12.5004 3.1 13.6004 4.5 13.6004C5.7 13.6004 6.7 12.7004 6.9 11.6004H12.7L15.3 7.20039L16 9.00039C15.3 9.40039 14.9 10.2004 14.9 11.1004C14.9 12.5004 16 13.6004 17.4 13.6004C18.8 13.6004 19.9 12.5004 19.9 11.1004C19.9 9.70039 18.9 8.60039 17.5 8.60039ZM4.5 12.6004C3.7 12.6004 3 11.9004 3 11.1004C3 10.3004 3.7 9.60039 4.5 9.60039C5.2 9.60039 5.7 10.0004 5.9 10.6004H4.5V11.6004H5.9C5.7 12.2004 5.2 12.6004 4.5 12.6004ZM17.5 12.6004C16.7 12.6004 16 11.9004 16 11.1004C16 10.6004 16.2 10.2004 16.5 10.0004L17 11.3004L17.9 10.9004L17.4 9.60039C18.2 9.60039 18.9 10.3004 18.9 11.1004C18.9 11.9004 18.3 12.6004 17.5 12.6004Z" fill="white"/>
</svg>
