<svg width="8" height="16" viewBox="0 0 8 16" fill="none" xmlns="http://www.w3.org/2000/svg">
<path d="M3.01658 11.0669L0.0175781 15.0674L0.817678 15.6672L3.81668 11.6667L3.01658 11.0669Z" fill="white"/>
<path d="M6.78281 11.0762L5.88281 10.3762V7.07617L7.08281 8.17617L7.78281 7.47617L4.88281 4.67617V9.77617L3.88281 9.07617V4.57617L0.882812 6.07617V8.37617H1.88281V6.67617L2.88281 6.17617V9.57617L5.98281 11.6762L6.88281 15.4762L7.88281 15.1762L6.78281 11.0762Z" fill="white"/>
<path d="M4.58355 3.37613C4.68355 3.37613 4.78355 3.37613 4.88355 3.37613C5.58355 3.37613 6.18355 2.87613 6.38355 2.17613C6.58355 1.37613 6.08355 0.576132 5.28355 0.376132C4.48355 0.176132 3.68355 0.676132 3.48355 1.47613C3.28355 2.37613 3.78355 3.17613 4.58355 3.37613ZM4.38355 1.77613C4.48355 1.47613 4.68355 1.37613 4.98355 1.37613H5.08355C5.38355 1.47613 5.58355 1.67613 5.48355 1.97613C5.38355 2.27613 5.18355 2.47613 4.88355 2.37613C4.58355 2.27613 4.38355 1.97613 4.38355 1.77613Z" fill="white"/>
</svg>
