<svg width="12" height="16" viewBox="0 0 12 16" fill="none" xmlns="http://www.w3.org/2000/svg">
<path fill-rule="evenodd" clip-rule="evenodd" d="M6.1 1C3.3 1 1 3.3 1 6.1C1 9.6 5.5 14.7 5.7 14.9C5.9 15.1 6.2 15.1 6.3 14.9C6.5 14.7 11 9.6 11 6.1C11.2 3.3 8.9 1 6.1 1Z" stroke="white" stroke-miterlimit="10"/>
<path fill-rule="evenodd" clip-rule="evenodd" d="M6.10039 8.30039C4.90039 8.30039 3.90039 7.30039 3.90039 6.10039C3.90039 4.90039 4.90039 3.90039 6.10039 3.90039C7.30039 3.90039 8.30039 4.90039 8.30039 6.10039C8.30039 7.30039 7.30039 8.30039 6.10039 8.30039Z" stroke="white" stroke-miterlimit="10"/>
</svg>
