<svg width="41" height="56" viewBox="0 0 41 56" fill="none" xmlns="http://www.w3.org/2000/svg">
<path fill-rule="evenodd" clip-rule="evenodd" d="M20.222 0C9.06245 0.0747495 0 9.11944 0 20.2571C0 34.1605 18.1249 54.5671 18.8739 55.3893C19.5479 56.1368 20.6714 56.2116 21.4203 55.5388C21.4952 55.4641 21.4952 55.4641 21.5701 55.3893C22.3191 54.5671 40.444 34.1605 40.444 20.2571C40.5189 9.11944 31.4564 0.0747495 20.222 0Z" fill="#2F1FCE"/>
<rect x="21.5879" y="18.4004" width="1.05882" height="4.20002" fill="white"/>
<rect x="24.7637" y="18.4004" width="1.05882" height="4.20002" fill="white"/>
<rect x="25.8242" y="21.5508" width="1.05" height="4.23529" transform="rotate(90 25.8242 21.5508)" fill="white"/>
<rect x="25.8242" y="18.4004" width="1.05" height="4.23529" transform="rotate(90 25.8242 18.4004)" fill="white"/>
<rect x="14.1758" y="13.1494" width="1.05882" height="4.20002" fill="white"/>
<rect x="17.3516" y="13.1494" width="1.05882" height="4.20002" fill="white"/>
<rect x="18.4121" y="16.2998" width="1.05" height="4.23529" transform="rotate(90 18.4121 16.2998)" fill="white"/>
<rect x="18.4121" y="13.1494" width="1.05" height="4.23529" transform="rotate(90 18.4121 13.1494)" fill="white"/>
<rect x="21.5879" y="23.6504" width="1.05882" height="4.20002" fill="white"/>
<rect x="24.7637" y="23.6504" width="1.05882" height="4.20002" fill="white"/>
<rect x="25.8242" y="26.8008" width="1.05" height="4.23529" transform="rotate(90 25.8242 26.8008)" fill="white"/>
<rect x="25.8242" y="23.6504" width="1.05" height="4.23529" transform="rotate(90 25.8242 23.6504)" fill="white"/>
<rect x="14.1758" y="18.4004" width="1.05882" height="4.20002" fill="white"/>
<rect x="17.3516" y="18.4004" width="1.05882" height="4.20002" fill="white"/>
<rect x="18.4121" y="21.5508" width="1.05" height="4.23529" transform="rotate(90 18.4121 21.5508)" fill="white"/>
<rect x="18.4121" y="18.4004" width="1.05" height="4.23529" transform="rotate(90 18.4121 18.4004)" fill="white"/>
<rect x="14.1758" y="23.6504" width="1.05882" height="6.30003" fill="white"/>
<rect x="17.3535" y="23.6504" width="1.05882" height="6.30003" fill="white"/>
<rect x="18.4121" y="23.6504" width="1.05" height="4.23529" transform="rotate(90 18.4121 23.6504)" fill="white"/>
<rect x="19.4707" y="10" width="1.05882" height="19.9501" fill="white"/>
<rect x="12.0586" y="10" width="1.05882" height="19.9501" fill="white"/>
<rect x="26.8828" y="16.2998" width="1.05882" height="13.6501" fill="white"/>
<rect x="27.9414" y="16.2998" width="1.05" height="8.47059" transform="rotate(90 27.9414 16.2998)" fill="white"/>
<rect x="20.5293" y="10" width="1.05" height="8.47059" transform="rotate(90 20.5293 10)" fill="white"/>
<rect x="29" y="29.9502" width="1.05001" height="18" transform="rotate(90 29 29.9502)" fill="white"/>
</svg>
