<svg width="16" height="21" viewBox="0 0 16 21" fill="none" xmlns="http://www.w3.org/2000/svg">
<path d="M14.8 7.8V20H1V1H8.3" stroke="#FF5E64" stroke-miterlimit="10" stroke-linecap="round" stroke-linejoin="round"/>
<path d="M14.6 7.6998H8.5V1.2998L14.6 7.6998Z" stroke="#FF5E64" stroke-miterlimit="10" stroke-linecap="round" stroke-linejoin="round"/>
<path d="M4.89961 12.8002C5.19961 12.8002 5.49961 12.9002 5.69961 13.1002C5.89961 13.3002 5.99961 13.6002 5.99961 13.9002C5.99961 14.2002 5.89961 14.5002 5.69961 14.7002C5.49961 14.9002 5.19961 15.0002 4.89961 15.0002H4.19961V16.2002H3.59961V12.7002H4.89961V12.8002ZM4.89961 14.5002C5.09961 14.5002 5.19961 14.4002 5.29961 14.3002C5.39961 14.2002 5.49961 14.0002 5.49961 13.9002C5.49961 13.7002 5.39961 13.6002 5.29961 13.5002C5.19961 13.4002 5.09961 13.3002 4.89961 13.3002H4.19961V14.5002H4.89961Z" fill="#FF5E64"/>
<path d="M7.9 12.8002C8.4 12.8002 8.8 13.0002 9.1 13.3002C9.4 13.6002 9.6 14.1002 9.6 14.5002C9.6 15.0002 9.4 15.4002 9.1 15.7002C8.8 16.0002 8.4 16.2002 7.9 16.2002H6.5V12.7002H7.9V12.8002ZM7.9 15.7002C8.2 15.7002 8.5 15.6002 8.7 15.4002C8.9 15.2002 9 14.9002 9 14.5002C9 14.2002 8.9 13.9002 8.7 13.6002C8.5 13.4002 8.2 13.3002 7.9 13.3002H7.1V15.7002H7.9Z" fill="#FF5E64"/>
<path d="M12.1996 13.3002H10.6996V14.3002H12.0996V14.8002H10.6996V16.2002H10.0996V12.7002H12.1996V13.3002Z" fill="#FF5E64"/>
</svg>
