<svg width="18" height="13" viewBox="0 0 18 13" fill="none" xmlns="http://www.w3.org/2000/svg">
<path fill-rule="evenodd" clip-rule="evenodd" d="M7.1907 0.0283668C7.05374 -0.0401161 6.91677 0.0283657 6.77981 0.0968486L2.94477 3.65796H0.342414C0.136966 3.65796 0 3.79493 0 4.00037V9.06811C0 9.27356 0.136966 9.41052 0.342414 9.41052H2.94477L6.77981 12.9032C6.91677 12.9716 7.05374 13.0401 7.1907 12.9716C7.32767 12.9032 7.39615 12.7662 7.39615 12.6292V0.370781C7.39615 0.233815 7.32767 0.0968497 7.1907 0.0283668ZM9.93002 4.47975L9.38216 5.02762C9.24519 5.16458 9.24519 5.30155 9.31367 5.43852C9.79305 6.05486 9.79305 6.94514 9.31367 7.56149C9.24519 7.69845 9.24519 7.9039 9.38216 8.04087L9.93002 8.58873C10.067 8.72569 10.3409 8.72569 10.4779 8.58873C11.3682 7.42452 11.3682 5.78093 10.4779 4.61672C10.3409 4.41127 10.1355 4.34279 9.93002 4.47975ZM12.6009 2.42527C12.4639 2.2883 12.19 2.2883 12.053 2.42527L11.5051 2.90465C11.3682 3.04161 11.3682 3.24706 11.5051 3.38403C13.0802 5.16459 13.0802 7.76693 11.5051 9.54749C11.3682 9.68446 11.3682 9.8899 11.5051 10.0269L12.053 10.5747C12.19 10.7117 12.4639 10.7117 12.6009 10.5747C14.6553 8.24632 14.6553 4.75369 12.6009 2.42527ZM14.6553 0.370781C14.5184 0.233815 14.3129 0.233815 14.1075 0.370781L13.6281 0.850162C13.4911 0.987128 13.4911 1.19258 13.6281 1.32954C16.3674 4.20582 16.3674 8.72569 13.6281 11.5335C13.4911 11.6705 13.4911 11.8759 13.6281 12.0129L14.176 12.5607C14.3129 12.6977 14.5869 12.6977 14.7238 12.5607C17.9425 9.13659 17.9425 3.79493 14.6553 0.370781Z" fill="white"/>
</svg>
